# xmcd
#
# Track frame offsets:
#	187
#	9462
#	31567
#	72732
#	116420
#	161497
#	204080
#
# Disc length: 2911 seconds
#
# Revision: 1
# Processed by: cddbd v1.5.1PL0 Copyright (c) Steve Scherf et al.
# Submitted via: CDex 1.50Beta5
#
DISCID=4d0b5d07
DTITLE=Various Artist - 爆れつハンター?ザ・マンスリー・コレクション 3rd Season
DYEAR=1900
DGENRE=Anime
TTITLE0=あかほりさとる大先生の華麗なる野望・放蕩編
TTITLE1=恋愛至上主義
TTITLE2=第8話「タンゴのセックで大騒ぎ」
TTITLE3=第9話「不快指数は1000%」
TTITLE4=第10話「疾風怒濤の大奇跡」
TTITLE5=第11話「夏の終わりに…」
TTITLE6=あかほりさとる大先生の華麗なる野望・裏切編
EXTD=
EXTT0=
EXTT1=
EXTT2=
EXTT3=
EXTT4=
EXTT5=
EXTT6=
PLAYORDER=
